<svg width="81" height="18.000000000000004" xmlns="http://www.w3.org/2000/svg">
 <!-- Created with Method Draw - http://github.com/duopixel/Method-Draw/ -->
 <g>
  <title>Layer 1</title>
  <text x="12.686845" font-style="normal" font-weight="bold" xml:space="preserve" text-anchor="start" font-family="Arvo, sans-serif" font-size="11" id="svg_2" y="17.908121" stroke-opacity="null" stroke-width="0" stroke="#000" fill="#0000ff">Service Desk</text>
  <path stroke="#000" id="svg_4" d="m0.99917,254.442143l3.961378,-57.410267l16.038582,-25.550007l16.038586,25.550007l3.961451,57.410267l-11.099363,46.039765l-17.801347,0l-11.099287,-46.039765z" stroke-opacity="null" stroke-width="0" fill="#9151f7"/>
  <path stroke="#000" id="svg_10" d="m6.618145,2.274012c0.230772,0 0.416892,0.186225 0.416892,0.415681l0,3.832998l2.523049,1.099062c0.211158,0.092281 0.307139,0.337533 0.214497,0.547868c-0.068439,0.155881 -0.221174,0.248993 -0.381838,0.248993c-0.055919,0 -0.113091,-0.011223 -0.167341,-0.035333l-2.765088,-1.204645c-0.002087,-0.000831 -0.003756,-0.001663 -0.005425,-0.002494l-0.001669,-0.000831c-0.00626,-0.002494 -0.009598,-0.008314 -0.01544,-0.010392c-0.0434,-0.021615 -0.083879,-0.046972 -0.116429,-0.081058c-0.014188,-0.014133 -0.022117,-0.032423 -0.032967,-0.048635c-0.020031,-0.026604 -0.042148,-0.052792 -0.05425,-0.084799c-0.010015,-0.024941 -0.01085,-0.05196 -0.015858,-0.078564c-0.005425,-0.026604 -0.015858,-0.050297 -0.015858,-0.077317l0,-4.105269c0,-0.22904 0.186954,-0.415266 0.417726,-0.415266zm-6.520868,0.709568c0,-1.592891 1.295744,-2.883997 2.895289,-2.883997c0.808744,0 1.5382,0.330882 2.061506,0.86337c0.499519,-0.132602 1.021989,-0.209919 1.563656,-0.209919c0.55669,0 1.093349,0.081058 1.605387,0.220727c0.525392,-0.538307 1.258603,-0.874178 2.071938,-0.874178c1.599127,0 2.895289,1.291106 2.895289,2.883997c0,0.766932 -0.302966,1.461951 -0.793304,1.978643c0.184868,0.577797 0.285857,1.193006 0.285857,1.832324c0,3.336674 -2.715428,6.041513 -6.065166,6.041513c-3.349738,0 -6.065166,-2.704839 -6.065166,-6.041513c0,-0.654698 0.108083,-1.283208 0.301297,-1.873892c-0.469055,-0.511704 -0.756581,-1.190096 -0.756581,-1.937075zm6.52045,8.60502c2.654501,0 4.81324,-2.150735 4.81324,-4.794053c0,-2.643734 -2.158739,-4.794469 -4.81324,-4.794469c-2.654501,0 -4.812823,2.15032 -4.812823,4.794469c0,2.644149 2.159156,4.794053 4.812823,4.794053z" stroke-opacity="null" stroke-width="0" fill="#0000ff"/>
 </g>
</svg>